HIERARCHY
ROOT hip
{
  OFFSET 0 0 0
  CHANNELS 6 Xposition Yposition Zposition Zrotation Yrotation Xrotation
  JOINT abdomen
  {
    OFFSET 0 20.6881 -0.73152
    CHANNELS 3 Zrotation Xrotation Yrotation
    JOINT chest
    {
      OFFSET 0 11.7043 -0.48768
      CHANNELS 3 Zrotation Xrotation Yrotation
      JOINT neck
      {
        OFFSET 0 22.1894 -2.19456
        CHANNELS 3 Zrotation Xrotation Yrotation
        JOINT head
        {
          OFFSET -0.24384 7.07133 1.2192
          CHANNELS 3 Zrotation Xrotation Yrotation
          JOINT leftEye
          {
            OFFSET 4.14528 8.04674 8.04672
            CHANNELS 3 Zrotation Xrotation Yrotation
            End Site
            {
              OFFSET 1 0 0
            }
          }
          JOINT rightEye
          {
            OFFSET -3.6576 8.04674 8.04672
            CHANNELS 3 Zrotation Xrotation Yrotation
            End Site
            {
              OFFSET 1 0 0
            }
          }
        }
      }
      JOINT rCollar
      {
        OFFSET -2.68224 19.2634 -4.8768
        CHANNELS 3 Zrotation Xrotation Yrotation
        JOINT rShldr
        {
          OFFSET -8.77824 -1.95073 1.46304
          CHANNELS 3 Zrotation Xrotation Yrotation
          JOINT rForeArm
          {
            OFFSET -28.1742 -1.7115 0.48768
            CHANNELS 3 Zrotation Xrotation Yrotation
            JOINT rHand
            {
              OFFSET -22.5879 0.773209 7.07136
              CHANNELS 3 Zrotation Xrotation Yrotation
              JOINT rThumb1
              {
                OFFSET -1.2192 -0.487915 3.41376
                CHANNELS 3 Zrotation Xrotation Yrotation
                JOINT rThumb2
                {
                  OFFSET -3.37035 -0.52449 3.41376
                  CHANNELS 3 Zrotation Xrotation Yrotation
                  End Site
                  {
                    OFFSET -1.78271 -1.18214 1.43049
                  }
                }
              }
              JOINT rIndex1
              {
                OFFSET -7.75947 0.938293 5.60832
                CHANNELS 3 Zrotation Xrotation Yrotation
                JOINT rIndex2
                {
                  OFFSET -2.54057 -0.884171 1.56538
                  CHANNELS 3 Zrotation Xrotation Yrotation
                  End Site
                  {
                    OFFSET -1.62519 -0.234802 1.16502
                  }
                }
              }
              JOINT rMid1
              {
                OFFSET -8.24714 1.18213 3.41376
                CHANNELS 3 Zrotation Xrotation Yrotation
                JOINT rMid2
                {
                  OFFSET -3.10165 -0.590103 1.0647
                  CHANNELS 3 Zrotation Xrotation Yrotation
                  End Site
                  {
                    OFFSET -2.48547 -0.328903 0.83742
                  }
                }
              }
              JOINT rRing1
              {
                OFFSET -8.82822 0.546677 1.51678
                CHANNELS 3 Zrotation Xrotation Yrotation
                JOINT rRing2
                {
                  OFFSET -2.60934 -0.819778 -0.0198488
                  CHANNELS 3 Zrotation Xrotation Yrotation
                  End Site
                  {
                    OFFSET -2.33842 -0.294052 0.168128
                  }
                }
              }
              JOINT rPinky1
              {
                OFFSET -8.27202 -0.0477905 -0.4584
                CHANNELS 3 Zrotation Xrotation Yrotation
                JOINT rPinky2
                {
                  OFFSET -1.82734 -0.647385 -0.700984
                  CHANNELS 3 Zrotation Xrotation Yrotation
                  End Site
                  {
                    OFFSET -1.69225 -0.51767 -0.607171
                  }
                }
              }
            }
          }
        }
      }
      JOINT lCollar
      {
        OFFSET 2.68224 19.2634 -4.8768
        CHANNELS 3 Zrotation Xrotation Yrotation
        JOINT lShldr
        {
          OFFSET 8.77824 -1.95073 1.46304
          CHANNELS 3 Zrotation Xrotation Yrotation
          JOINT lForeArm
          {
            OFFSET 28.1742 -1.7115 0.48768
            CHANNELS 3 Zrotation Xrotation Yrotation
            JOINT lHand
            {
              OFFSET 22.5879 0.773209 7.07136
              CHANNELS 3 Zrotation Xrotation Yrotation
              JOINT lThumb1
              {
                OFFSET 1.2192 -0.487915 3.41376
                CHANNELS 3 Zrotation Xrotation Yrotation
                JOINT lThumb2
                {
                  OFFSET 3.37035 -0.52449 3.41376
                  CHANNELS 3 Zrotation Xrotation Yrotation
                  End Site
                  {
                    OFFSET 1.78271 -1.18214 1.43049
                  }
                }
              }
              JOINT lIndex1
              {
                OFFSET 7.75947 0.938293 5.60832
                CHANNELS 3 Zrotation Xrotation Yrotation
                JOINT lIndex2
                {
                  OFFSET 2.54057 -0.884171 1.56538
                  CHANNELS 3 Zrotation Xrotation Yrotation
                  End Site
                  {
                    OFFSET 1.62519 -0.234802 1.16502
                  }
                }
              }
              JOINT lMid1
              {
                OFFSET 8.24714 1.18213 3.41376
                CHANNELS 3 Zrotation Xrotation Yrotation
                JOINT lMid2
                {
                  OFFSET 3.10165 -0.590103 1.0647
                  CHANNELS 3 Zrotation Xrotation Yrotation
                  End Site
                  {
                    OFFSET 2.48547 -0.328903 0.83742
                  }
                }
              }
              JOINT lRing1
              {
                OFFSET 8.82822 0.546677 1.51678
                CHANNELS 3 Zrotation Xrotation Yrotation
                JOINT lRing2
                {
                  OFFSET 2.60934 -0.819778 -0.0198488
                  CHANNELS 3 Zrotation Xrotation Yrotation
                  End Site
                  {
                    OFFSET 2.33842 -0.294052 0.168128
                  }
                }
              }
              JOINT lPinky1
              {
                OFFSET 8.27202 -0.0477905 -0.4584
                CHANNELS 3 Zrotation Xrotation Yrotation
                JOINT lPinky2
                {
                  OFFSET 1.82734 -0.647385 -0.700984
                  CHANNELS 3 Zrotation Xrotation Yrotation
                  End Site
                  {
                    OFFSET 1.69225 -0.51767 -0.607171
                  }
                }
              }
            }
          }
        }
      }
    }
  }
  JOINT rButtock
  {
    OFFSET -8.77824 4.35084 1.2192
    CHANNELS 3 Zrotation Xrotation Yrotation
    JOINT rThigh
    {
      OFFSET 0 -1.70687 -2.19456
      CHANNELS 3 Zrotation Xrotation Yrotation
      JOINT rShin
      {
        OFFSET 0 -36.8199 0.73152
        CHANNELS 3 Zrotation Xrotation Yrotation
        JOINT rFoot
        {
          OFFSET 0.73152 -45.1104 -5.12064
          CHANNELS 3 Zrotation Xrotation Yrotation
          End Site
          {
            OFFSET -1.1221 -3.69964 12.103
          }
        }
      }
    }
  }
  JOINT lButtock
  {
    OFFSET 8.77824 4.35084 1.2192
    CHANNELS 3 Zrotation Xrotation Yrotation
    JOINT lThigh
    {
      OFFSET 0 -1.70687 -2.19456
      CHANNELS 3 Zrotation Xrotation Yrotation
      JOINT lShin
      {
        OFFSET 0 -36.8199 0.73152
        CHANNELS 3 Zrotation Xrotation Yrotation
        JOINT lFoot
        {
          OFFSET -0.73152 -45.1104 -5.12064
          CHANNELS 3 Zrotation Xrotation Yrotation
          End Site
          {
            OFFSET 1.1221 -3.69964 12.103
          }
        }
      }
    }
  }
}
MOTION
Frames:	9
Frame Time:	0.00833333
-30.4078 84.6888 70.1792 0.0 0.0 0.0 -0.509402 -0.00239385 -0.0145495 -0.140515 -0.00366762 -0.0243453 -1.46556e-14 7.95139e-16 6.21207e-18 -4.38351e-14 9.54166e-15 2.48481e-17 -0.0 0.0 0.0 -0.0 0.0 0.0 -7.10814e-15 -4.27076e-18 1.98785e-16 -1.52345e-13 8.69683e-17 0.0 -2.63444e-12 7.8838e-13 1.59028e-14 -3.0181e-11 -7.91983e-13 -3.49861e-14 -7.11887e-11 -6.71901e-15 -9.54166e-15 -1.22964e-10 -1.59028e-14 4.77083e-15 -7.11864e-11 -8.34896e-15 -1.27222e-14 7.73091 5.47488 0.417314 -7.11914e-11 -7.35503e-15 -3.18055e-15 2.90554 0.965183 0.102902 -7.11897e-11 -7.25564e-15 1.59028e-15 10.2786 0.731801 0.0259123 -7.11995e-11 -3.57812e-15 1.27222e-14 2.22167 -0.733487 -0.20892 -7.40363e-15 -3.30014e-18 -1.98785e-16 -1.53086e-13 -2.60905e-16 -1.19271e-15 -2.63926e-12 -7.91759e-13 2.22639e-14 -3.01732e-11 7.74614e-13 -1.59028e-14 -7.11755e-11 -3.46079e-14 1.27222e-14 -1.22899e-10 -6.36111e-14 1.27222e-14 -7.1176e-11 -3.53837e-14 1.90833e-14 -7.73091 5.47488 -0.417314 -7.11739e-11 -3.52843e-14 6.36111e-15 -2.90554 0.965183 -0.102902 -7.11786e-11 -3.49861e-14 5.56597e-15 -10.2786 0.731801 -0.0259123 -7.11677e-11 -2.94201e-14 -6.36111e-15 -2.22167 -0.733487 0.20892 -2.03217e-16 0.0 -3.88251e-19 0.123751 -2.41906 -0.0242098 -0.00796909 -1.17026 -0.0686478 -0.50932 3.58917 0.131537 2.03217e-16 0.0 3.88251e-19 -0.898685 -4.37902 0.0739084 0.00246129 2.37987 0.0145056 0.515483 1.99908 -0.099739
-28.4219 83.1758 65.9154 174.642 71.6143 -175.633 0.230171 -0.79029 0.604495 0.354108 2.07571 0.126892 0.684071 -0.212777 1.42596 -2.45349 -0.303481 2.73725 -0.0 0.0 0.0 -0.0 0.0 0.0 -4.39942e-14 -1.80723e-13 1.61791e-13 21.2924 9.00672 1.39183 -14.9733 -12.1973 14.5303 0.529893 -16.2777 -1.96845 5.40865e-10 3.33545e-10 3.39713e-10 9.12489e-10 6.03448e-10 6.11288e-10 5.40868e-10 3.33544e-10 3.39709e-10 7.73091 5.47488 0.417314 5.40862e-10 3.33546e-10 3.39718e-10 2.90554 0.965183 0.102902 5.40866e-10 3.33546e-10 3.39722e-10 10.2786 0.731801 0.0259123 5.40856e-10 3.33548e-10 3.39731e-10 2.22167 -0.733487 -0.20892 -4.42156e-14 -1.8072e-13 1.61482e-13 -20.7938 17.4037 -2.30986 22.1231 -19.9836 -15.0177 -0.295357 -12.1119 1.56831 -8.60337e-10 3.02987e-10 -7.18555e-10 -1.45887e-09 5.32433e-10 -1.26502e-09 -8.60338e-10 3.02986e-10 -7.18547e-10 -7.73091 5.47488 -0.417314 -8.60336e-10 3.02987e-10 -7.18558e-10 -2.90554 0.965183 -0.102902 -8.6034e-10 3.02986e-10 -7.18557e-10 -10.2786 0.731801 -0.0259123 -8.6033e-10 3.02991e-10 -7.18564e-10 -2.22167 -0.733487 0.20892 -2.03217e-16 0.0 -3.88251e-19 -0.246387 -6.66526 1.6219 -0.0123322 5.65536 0.024147 -0.457571 5.44873 3.07998 2.03217e-16 0.0 3.88251e-19 0.26526 -13.1212 -1.74302 0.000842775 7.65243 -0.0495688 0.838735 -1.97419 3.22194
-28.0371 83.197 65.8076 174.752 71.8756 -175.617 1.0358 -1.62001 1.26143 0.86452 4.27113 0.288105 1.42097 -0.431495 2.93729 -5.02066 -0.630562 5.63767 -0.0 0.0 0.0 -0.0 0.0 0.0 -8.49291e-14 -3.80805e-13 3.41021e-13 43.2968 18.5637 2.99613 -23.9239 -22.4071 31.8518 -0.343086 -33.3672 -4.65178 1.23481e-09 7.0783e-10 7.21778e-10 2.08658e-09 1.28068e-09 1.29914e-09 1.23481e-09 7.07831e-10 7.21773e-10 7.73091 5.47488 0.417314 1.23481e-09 7.07832e-10 7.21782e-10 2.90554 0.965183 0.102902 1.23481e-09 7.07832e-10 7.21786e-10 10.2786 0.731801 0.0259123 1.2348e-09 7.07833e-10 7.21792e-10 2.22167 -0.733487 -0.20892 -8.50685e-14 -3.80799e-13 3.4081e-13 -40.9468 35.699 -5.57417 32.3666 -36.1535 -36.8997 0.179679 -24.8407 3.4717 -1.74828e-09 6.44104e-10 -1.52434e-09 -2.96209e-09 1.13187e-09 -2.68372e-09 -1.74828e-09 6.44104e-10 -1.52433e-09 -7.73091 5.47488 -0.417314 -1.74828e-09 6.44104e-10 -1.52434e-09 -2.90554 0.965183 -0.102902 -1.74828e-09 6.44104e-10 -1.52434e-09 -10.2786 0.731801 -0.0259123 -1.74827e-09 6.44107e-10 -1.52434e-09 -2.22167 -0.733487 0.20892 -2.03217e-16 0.0 -3.88251e-19 -0.366217 -11.1593 3.40187 -0.0413872 12.8855 0.125423 -0.610438 7.37188 6.22202 2.03217e-16 0.0 3.88251e-19 0.836586 -22.3261 -3.83877 0.0123336 13.2492 -0.120004 1.67914 -6.13081 6.74977
-27.6654 83.2135 65.6878 174.895 72.1653 -175.528 1.76042 -2.36499 1.84398 1.31026 6.2343 0.43167 2.08395 -0.636748 4.27812 -7.27379 -0.902136 8.21265 -0.0 0.0 0.0 -0.0 0.0 0.0 -1.17766e-13 -5.42159e-13 4.84976e-13 62.4301 26.9523 4.62754 -26.6594 -26.8005 49.2998 -3.20544 -48.5407 -8.57969 1.76497e-09 1.00065e-09 1.01916e-09 2.9834e-09 1.81038e-09 1.83385e-09 1.76498e-09 1.00065e-09 1.01915e-09 7.73091 5.47488 0.417314 1.76497e-09 1.00065e-09 1.01916e-09 2.90554 0.965183 0.102902 1.76498e-09 1.00065e-09 1.01916e-09 10.2786 0.731801 0.0259123 1.76497e-09 1.00065e-09 1.01917e-09 2.22167 -0.733487 -0.20892 -1.17839e-13 -5.42152e-13 4.84844e-13 -55.9959 51.7614 -10.7219 30.5279 -40.7378 -62.6141 1.50416 -36.2132 5.70489 -2.43866e-09 9.09029e-10 -2.15569e-09 -4.1308e-09 1.59743e-09 -3.79507e-09 -2.43866e-09 9.0903e-10 -2.15568e-09 -7.73091 5.47488 -0.417314 -2.43866e-09 9.0903e-10 -2.15569e-09 -2.90554 0.965183 -0.102902 -2.43866e-09 9.09029e-10 -2.15568e-09 -10.2786 0.731801 -0.0259123 -2.43866e-09 9.09031e-10 -2.15568e-09 -2.22167 -0.733487 0.20892 -2.03217e-16 0.0 -3.88251e-19 -0.232403 -15.1093 5.05643 -0.0900661 19.3065 0.22183 -0.932028 9.07883 9.0499 2.03217e-16 0.0 3.88251e-19 0.697446 -30.4816 -6.08318 0.0345772 18.1975 -0.185654 2.87593 -9.78199 10.0064
-27.3132 83.227 65.5565 175.05 72.4837 -175.36 2.24646 -2.89919 2.23925 1.61791 7.61696 0.528888 2.54099 -0.809764 5.19252 -8.80702 -1.04347 9.97305 -0.0 0.0 0.0 -0.0 0.0 0.0 -1.30359e-13 -6.06695e-13 5.40744e-13 75.4931 32.488 5.87603 -27.0075 -26.363 61.4591 -7.74829 -59.1512 -13.6095 1.88568e-09 1.0898e-09 1.10482e-09 3.18702e-09 1.97121e-09 1.98574e-09 1.88568e-09 1.0898e-09 1.10481e-09 7.73091 5.47488 0.417314 1.88568e-09 1.0898e-09 1.10482e-09 2.90554 0.965183 0.102902 1.88568e-09 1.0898e-09 1.10483e-09 10.2786 0.731801 0.0259123 1.88567e-09 1.08981e-09 1.10483e-09 2.22167 -0.733487 -0.20892 -1.30405e-13 -6.06688e-13 5.40645e-13 -62.5713 62.5655 -17.8506 28.3972 -37.0727 -78.8191 3.21388 -44.3038 7.88391 -2.63514e-09 9.83475e-10 -2.35093e-09 -4.46321e-09 1.72829e-09 -4.13804e-09 -2.63515e-09 9.83476e-10 -2.35092e-09 -7.73091 5.47488 -0.417314 -2.63514e-09 9.83477e-10 -2.35092e-09 -2.90554 0.965183 -0.102902 -2.63515e-09 9.83475e-10 -2.35092e-09 -10.2786 0.731801 -0.0259123 -2.63514e-09 9.83476e-10 -2.35091e-09 -2.22167 -0.733487 0.20892 -2.03217e-16 0.0 -3.88251e-19 -0.00893159 -17.744 6.26714 -0.137564 23.7049 0.293337 -1.27453 10.3219 11.0337 2.03217e-16 0.0 3.88251e-19 0.151564 -36.1216 -8.08038 0.0563598 21.5246 -0.231784 3.9957 -12.3026 12.4417
-26.9628 83.238 65.4165 175.166 72.8136 -175.199 2.38243 -3.13853 2.37473 1.73894 8.18705 0.560859 2.71076 -0.943162 5.5069 -9.37132 -1.00099 10.5841 -0.0 0.0 0.0 -0.0 0.0 0.0 -1.08959e-13 -5.02155e-13 4.48456e-13 80.6924 34.0758 6.21377 -27.1112 -25.3792 65.9093 -11.0187 -63.7113 -17.0472 1.3349e-09 8.46809e-10 8.19352e-10 2.25508e-09 1.52935e-09 1.46868e-09 1.33491e-09 8.46811e-10 8.19345e-10 7.73091 5.47488 0.417314 1.3349e-09 8.46811e-10 8.19356e-10 2.90554 0.965183 0.102902 1.33491e-09 8.46812e-10 8.19358e-10 10.2786 0.731801 0.0259123 1.3349e-09 8.46812e-10 8.19364e-10 2.22167 -0.733487 -0.20892 -1.09044e-13 -5.02151e-13 4.48313e-13 -62.952 66.5799 -22.672 28.3069 -34.4742 -83.935 4.25013 -47.9212 9.10102 -2.02809e-09 7.3724e-10 -1.8249e-09 -3.43556e-09 1.29509e-09 -3.21076e-09 -2.0281e-09 7.37241e-10 -1.82489e-09 -7.73091 5.47488 -0.417314 -2.02809e-09 7.37241e-10 -1.8249e-09 -2.90554 0.965183 -0.102902 -2.0281e-09 7.3724e-10 -1.82489e-09 -10.2786 0.731801 -0.0259123 -2.02809e-09 7.37241e-10 -1.82489e-09 -2.22167 -0.733487 0.20892 -2.03217e-16 0.0 -3.88251e-19 0.0801699 -18.566 6.75476 -0.158284 25.2623 0.319068 -1.46799 10.9683 11.7951 2.03217e-16 0.0 3.88251e-19 -0.181334 -38.331 -9.28653 0.064122 22.5593 -0.244929 4.57532 -13.3558 13.6358
-26.5986 83.2481 65.2726 175.237 73.1531 -175.086 2.26458 -3.16749 2.32419 1.72924 8.17676 0.545711 2.6717 -1.04842 5.39279 -9.24645 -0.828607 10.3747 -0.0 0.0 0.0 -0.0 0.0 0.0 -6.35466e-14 -2.78443e-13 2.51584e-13 80.4074 32.8568 5.80788 -27.0965 -25.5101 65.4282 -11.2623 -64.1504 -17.3434 3.09171e-10 3.6881e-10 2.7235e-10 5.19895e-10 6.61117e-10 4.80146e-10 3.09179e-10 3.68809e-10 2.72342e-10 7.73091 5.47488 0.417314 3.09169e-10 3.68809e-10 2.72355e-10 2.90554 0.965183 0.102902 3.09174e-10 3.6881e-10 2.72357e-10 10.2786 0.731801 0.0259123 3.09168e-10 3.68811e-10 2.72366e-10 2.22167 -0.733487 -0.20892 -6.37171e-14 -2.78446e-13 2.51345e-13 -62.3577 66.1227 -22.5384 28.281 -34.9581 -83.7413 4.33911 -48.387 9.23926 -8.52416e-10 2.64519e-10 -7.8896e-10 -1.44545e-09 4.63549e-10 -1.38544e-09 -8.52422e-10 2.64519e-10 -7.8895e-10 -7.73091 5.47488 -0.417314 -8.52417e-10 2.6452e-10 -7.88956e-10 -2.90554 0.965183 -0.102902 -8.52423e-10 2.64519e-10 -7.8895e-10 -10.2786 0.731801 -0.0259123 -8.52412e-10 2.6452e-10 -7.8895e-10 -2.22167 -0.733487 0.20892 -2.03217e-16 0.0 -3.88251e-19 0.0143288 -18.1022 6.70302 -0.153835 24.791 0.308955 -1.50902 11.2028 11.6734 2.03217e-16 0.0 3.88251e-19 -0.101777 -38.1239 -9.73835 0.0591377 21.9576 -0.233195 4.65624 -13.3929 13.9082
-26.2164 83.2313 65.1284 175.3 73.5045 -174.999 2.04516 -3.11308 2.19393 1.67335 7.9343 0.509767 2.53086 -1.13533 5.11185 -8.82429 -0.615112 9.85046 -0.0 0.0 0.0 -0.0 0.0 0.0 -1.75721e-14 -6.07099e-14 5.22287e-14 77.8469 30.5217 5.14867 -27.0402 -26.0977 62.9935 -10.0465 -62.9417 -16.1398 -7.4935e-10 -1.27971e-10 -2.59702e-10 -1.27245e-09 -2.39615e-10 -4.84223e-10 -7.49342e-10 -1.27974e-10 -2.59711e-10 7.73091 5.47488 0.417314 -7.49351e-10 -1.27974e-10 -2.59696e-10 2.90554 0.965183 0.102902 -7.49348e-10 -1.27973e-10 -2.59693e-10 10.2786 0.731801 0.0259123 -7.49353e-10 -1.27971e-10 -2.59682e-10 2.22167 -0.733487 -0.20892 -1.78282e-14 -6.0718e-14 5.18882e-14 -61.4797 63.8767 -20.346 28.2793 -36.7198 -81.4304 3.99362 -47.5707 8.89413 3.71372e-10 -2.12381e-10 2.73809e-10 6.26845e-10 -3.74563e-10 4.87911e-10 3.71365e-10 -2.12382e-10 2.73819e-10 -7.73091 5.47488 -0.417314 3.71371e-10 -2.12381e-10 2.73811e-10 -2.90554 0.965183 -0.102902 3.71364e-10 -2.12381e-10 2.73817e-10 -10.2786 0.731801 -0.0259123 3.71376e-10 -2.1238e-10 2.73813e-10 -2.22167 -0.733487 0.20892 -2.03217e-16 0.0 -3.88251e-19 -0.102391 -17.1284 6.46016 -0.140013 23.5233 0.285335 -1.48296 11.2663 11.2078 2.03217e-16 0.0 3.88251e-19 0.202965 -36.9522 -9.77152 0.0501077 20.7381 -0.212342 4.51367 -13.0013 13.7823
-25.82 83.2021 64.9832 175.393 73.8638 -174.903 1.8767 -3.10228 2.09027 1.65586 7.80788 0.479366 2.39728 -1.2135 4.92581 -8.50292 -0.450477 9.51685 -0.0 0.0 0.0 -0.0 0.0 0.0 5.51455e-15 2.58958e-14 -4.75095e-14 76.2937 28.7695 4.67587 -27.0247 -26.4208 61.5513 -9.54349 -62.5025 -15.6646 -1.3985e-09 -4.27307e-10 -5.00317e-10 -2.37588e-09 -7.78956e-10 -9.28767e-10 -1.39849e-09 -4.27311e-10 -5.00327e-10 7.73091 5.47488 0.417314 -1.3985e-09 -4.27312e-10 -5.00311e-10 2.90554 0.965183 0.102902 -1.3985e-09 -4.27311e-10 -5.00308e-10 10.2786 0.731801 0.0259123 -1.3985e-09 -4.27308e-10 -5.00295e-10 2.22167 -0.733487 -0.20892 5.22022e-15 2.58867e-14 -4.79071e-14 -60.6465 62.4643 -19.3296 28.3513 -37.774 -80.0178 3.84927 -47.3299 8.76964 1.12277e-09 -4.71153e-10 8.80317e-10 1.90102e-09 -8.27459e-10 1.55925e-09 1.12276e-09 -4.71153e-10 8.80327e-10 -7.73091 5.47488 -0.417314 1.12277e-09 -4.71152e-10 8.80317e-10 -2.90554 0.965183 -0.102902 1.12276e-09 -4.71153e-10 8.80323e-10 -10.2786 0.731801 -0.0259123 1.12277e-09 -4.71151e-10 8.80317e-10 -2.22167 -0.733487 0.20892 -2.03217e-16 0.0 -3.88251e-19 -0.171902 -16.4208 6.37077 -0.131838 22.6915 0.270127 -1.48673 11.3977 10.9406 2.03217e-16 0.0 3.88251e-19 0.461337 -36.2527 -9.77513 0.0446638 19.9193 -0.197617 4.44928 -12.7594 13.7894
